<svg width="60" height="61" viewBox="0 0 60 61" fill="none" xmlns="http://www.w3.org/2000/svg">
<rect width="60" height="60" transform="translate(0 0.142883)" fill="white"/>
<path d="M30.0279 31.5453H29.168C28.5232 31.5453 28.2615 31.8522 28.2615 32.3028C28.2615 32.6864 28.4765 32.9453 28.869 32.9453C29.3269 32.9453 29.7288 32.7248 30.0279 32.3796V31.5453ZM27.8503 30.0878H27.4765V29.0522C27.9718 28.8317 28.7288 28.6878 29.2895 28.6878C30.598 28.6878 31.3456 29.2056 31.3456 30.2796V33.7124H30.0466V33.185C29.6727 33.6549 29.14 33.8658 28.5793 33.8658C27.6353 33.8658 26.9811 33.2426 26.9811 32.322C26.9811 31.2864 27.6821 30.6344 29.168 30.6344H30.0185V30.27C30.0185 29.7906 29.7194 29.5988 29.1961 29.5988C28.4765 29.6084 27.8503 30.0878 27.8503 30.0878ZM13.8035 28.1317C13.3362 28.1317 12.9998 27.7769 12.9998 27.307C12.9998 26.8372 13.3362 26.4824 13.8035 26.4824C14.2708 26.4824 14.6073 26.8372 14.6073 27.307C14.6073 27.7769 14.2708 28.1317 13.8035 28.1317ZM14.5605 33.7124H13.2334V29.9152C13.2334 29.407 12.925 29.244 12.925 29.244V28.8508H14.5605V33.7124ZM22.9624 26.7796V29.196C23.3176 28.8796 23.7662 28.6974 24.2989 28.6974C25.3643 28.6974 26.0652 29.3303 26.0652 30.2508V33.7316H24.7381V30.433C24.7381 29.944 24.4951 29.7138 23.9718 29.7138C23.626 29.7138 23.3082 29.8673 22.9718 30.1166V33.722H21.6447V27.844C21.6447 27.3166 21.3269 27.1824 21.3269 27.1824V26.7892H22.9624V26.7796ZM8.81285 26.7796V29.196C9.16799 28.8796 9.61659 28.6974 10.1493 28.6974C11.2147 28.6974 11.9157 29.3303 11.9157 30.2508V33.7316H10.5886V30.433C10.5886 29.944 10.3456 29.7138 9.8222 29.7138C9.4764 29.7138 9.15864 29.8673 8.8222 30.1166V33.722H7.48574V27.844C7.48574 27.3166 7.16798 27.1824 7.16798 27.1824V26.7892H8.81285V26.7796ZM33.869 28.8508V29.3303C34.2148 28.9851 34.6353 28.6878 35.2241 28.6878C36.2241 28.6878 36.9998 29.2728 36.9998 30.3275V33.7124H35.6727V30.4522C35.6727 29.9056 35.4391 29.6659 34.9064 29.6659C34.5325 29.6659 34.2148 29.8193 33.9157 30.0974V33.7124H32.5886V29.9152C32.5886 29.3782 32.2802 29.244 32.2802 29.244V28.8508H33.869ZM17.2241 28.8508V29.3303C17.5699 28.9851 17.9904 28.6878 18.5792 28.6878C19.5792 28.6878 20.3549 29.2728 20.3549 30.3275V33.7124H19.0278V30.4522C19.0278 29.9056 18.7942 29.6659 18.2615 29.6659C17.8876 29.6659 17.5699 29.8193 17.2708 30.0974V33.7124H15.9437V29.9152C15.9437 29.3782 15.6353 29.244 15.6353 29.244V28.8508H17.2241ZM39.6167 30.3371C39.6167 31.9193 40.2522 32.8878 41.4578 32.8878C42.0746 32.8878 42.4671 32.859 43.2242 32.3891L43.5232 33.1467C43.5232 33.1467 42.9251 33.9234 41.4578 33.9234C39.3737 33.9234 38.2148 32.5042 38.2148 30.3371C38.2148 28.2084 39.355 26.7796 41.383 26.7796C42.2055 26.7796 42.7288 26.9235 43.3457 27.2399V28.4385L43.0185 28.4289C43.0185 28.4289 42.4858 27.7865 41.4111 27.7865C40.1494 27.7769 39.6167 28.8508 39.6167 30.3371ZM47.3176 31.5453H46.4578C45.813 31.5453 45.5513 31.8522 45.5513 32.3028C45.5513 32.6864 45.7662 32.9453 46.1587 32.9453C46.6167 32.9453 47.0186 32.7248 47.3176 32.3796V31.5453ZM45.14 30.0878H44.7662V29.0522C45.2615 28.8317 46.0186 28.6878 46.5793 28.6878C47.8877 28.6878 48.6354 29.2056 48.6354 30.2796V33.7124H47.3363V33.185C46.9625 33.6549 46.4298 33.8658 45.869 33.8658C44.9251 33.8658 44.2709 33.2426 44.2709 32.322C44.2709 31.2864 44.9718 30.6344 46.4578 30.6344H47.3083V30.27C47.3083 29.7906 47.0092 29.5988 46.4859 29.5988C45.7662 29.6084 45.14 30.0878 45.14 30.0878ZM52.8036 28.7358V29.8673H52.5139C52.5139 29.8673 52.4485 29.7043 52.0933 29.7043C51.598 29.7043 51.3831 30.0495 51.2242 30.2316V33.722H49.8877V29.9056C49.8877 29.407 49.5419 29.2344 49.5419 29.2344V28.8508H51.1774V29.4837C51.4859 28.9947 51.8877 28.6878 52.3924 28.6878C52.5326 28.6878 52.6821 28.707 52.8036 28.7358ZM54.4859 31.296C54.4859 32.4659 55.0279 32.9261 55.6167 32.9261C56.0466 32.9261 56.4298 32.6864 56.6728 32.3604V29.9919C56.4578 29.8193 56.0933 29.6467 55.7195 29.6467C54.8877 29.6371 54.4859 30.1837 54.4859 31.296ZM57.9999 26.7892V33.722H56.7008V33.2234C56.3831 33.6645 55.8597 33.885 55.355 33.885C54.0653 33.885 53.1681 32.8111 53.1681 31.3056C53.1681 29.6659 54.0933 28.6974 55.5139 28.6974C55.9905 28.6974 56.4111 28.8508 56.6821 29.033V27.8344C56.6821 27.2974 56.3363 27.2111 56.3363 27.2111V26.7988H57.9999V26.7892ZM2.27078 32.2837C2.80349 32.696 3.55115 32.9165 4.10256 32.9165C4.7848 32.9165 5.14929 32.5713 5.14929 32.0344C5.14929 31.6316 4.97172 31.4878 4.42031 31.2193C3.7848 30.9029 3.26143 30.7111 2.77545 30.3179C2.32685 29.9632 2.09321 29.57 2.09321 28.8988C2.09321 28.1029 2.83152 27.2495 4.17732 27.2495C4.91564 27.2495 5.51378 27.3933 6.09322 27.6331V28.8029H5.77546C5.77546 28.8029 5.2334 28.1988 4.35489 28.1988C3.75676 28.1988 3.42031 28.4769 3.42031 28.8796C3.42031 29.1769 3.53246 29.3782 3.75676 29.5317C4.19601 29.8481 4.70069 30.0974 5.15863 30.3084C6.0278 30.7015 6.46705 31.0371 6.46705 32.0152C6.46705 33.1563 5.50443 33.8754 4.13059 33.8754C2.73807 33.8754 1.93433 33.0412 1.93433 33.0412L2.27078 32.2837ZM5.08387 26.4536L2.92498 25.3797L3.38293 24.4112L5.54181 25.4851L5.08387 26.4536Z" fill="#011B6A"/>
</svg>
